<svg width="25" height="25" viewBox="0 0 25 25" fill="none" xmlns="http://www.w3.org/2000/svg">
<path d="M16.5 12.5C16.5 11.4391 16.0786 10.4217 15.3284 9.67158C14.5783 8.92143 13.5609 8.5 12.5 8.5C11.4391 8.5 10.4217 8.92143 9.67158 9.67158C8.92143 10.4217 8.5 11.4391 8.5 12.5C8.5 13.5609 8.92143 14.5783 9.67158 15.3284C10.4217 16.0786 11.4391 16.5 12.5 16.5C13.5609 16.5 14.5783 16.0786 15.3284 15.3284C16.0786 14.5783 16.5 13.5609 16.5 12.5ZM16.5 12.5V14C16.5 14.663 16.7634 15.2989 17.2322 15.7678C17.7011 16.2366 18.337 16.5 19 16.5C19.663 16.5 20.2989 16.2366 20.7678 15.7678C21.2366 15.2989 21.5 14.663 21.5 14V12.5C21.5 10.72 20.9722 8.97991 19.9832 7.49987C18.9943 6.01983 17.5887 4.86628 15.9442 4.18509C14.2996 3.5039 12.49 3.32567 10.7442 3.67294C8.99836 4.0202 7.39472 4.87737 6.13604 6.13604C4.87737 7.39472 4.0202 8.99836 3.67294 10.7442C3.32567 12.49 3.5039 14.2996 4.18509 15.9442C4.86628 17.5887 6.01983 18.9943 7.49987 19.9832C8.97991 20.9722 10.72 21.5 12.5 21.5C14.0802 21.5016 15.6327 21.0862 17 20.294" stroke="#6B7280" stroke-width="2" stroke-linecap="round" stroke-linejoin="round"/>
</svg>
