<svg width="44" height="43" viewBox="0 0 44 43" fill="none" xmlns="http://www.w3.org/2000/svg">
<path d="M0.5 2C0.5 0.895431 1.39543 0 2.5 0H43.5V43H2.5C1.39543 43 0.5 42.1046 0.5 41V2Z" fill="white"/>
<path fill-rule="evenodd" clip-rule="evenodd" d="M32.5214 21.7443C32.5214 20.9821 32.453 20.2491 32.326 19.5455H22.2014V23.7038H27.9869C27.7377 25.0475 26.9803 26.1861 25.8418 26.9483V29.6456H29.316C31.3487 27.7741 32.5214 25.0182 32.5214 21.7443Z" fill="#4285F4"/>
<path fill-rule="evenodd" clip-rule="evenodd" d="M22.201 32.25C25.1035 32.25 27.537 31.2874 29.3156 29.6455L25.8414 26.9483C24.8788 27.5933 23.6474 27.9744 22.201 27.9744C19.4011 27.9744 17.0312 26.0834 16.1859 23.5424H12.5944V26.3277C14.3633 29.841 17.9988 32.25 22.201 32.25Z" fill="#34A853"/>
<path fill-rule="evenodd" clip-rule="evenodd" d="M16.1863 23.5425C15.9713 22.8975 15.8492 22.2085 15.8492 21.4999C15.8492 20.7914 15.9713 20.1024 16.1863 19.4574V16.6722H12.5948C11.8668 18.1235 11.4514 19.7653 11.4514 21.4999C11.4514 23.2346 11.8668 24.8764 12.5948 26.3277L16.1863 23.5425Z" fill="#FBBC05"/>
<path fill-rule="evenodd" clip-rule="evenodd" d="M22.201 15.0256C23.7793 15.0256 25.1964 15.568 26.3105 16.6332L29.3938 13.5499C27.5321 11.8152 25.0987 10.75 22.201 10.75C17.9988 10.75 14.3633 13.159 12.5944 16.6723L16.1859 19.4575C17.0312 16.9166 19.4011 15.0256 22.201 15.0256Z" fill="#EA4335"/>
</svg>
